<?xml-stylesheet type="text/css" href="svg.css" ?>
<svg id="Azul_Negro" data-name="Azul Negro" xmlns="http://www.w3.org/2000/svg" xmlns:xlink="http://www.w3.org/1999/xlink" viewBox="0 0 431.23 283.98"><defs><style>.cls-1{fill:#f6f6f6;}.cls-2{fill:#dadada;}.cls-3{fill:url(#Nueva_muestra_de_degradado_1);}</style><linearGradient id="Nueva_muestra_de_degradado_1" x1="337.04" y1="196.32" x2="508.51" y2="196.32" gradientUnits="userSpaceOnUse"><stop offset="0" stop-color="#1d1d1b"/><stop offset="0.83" stop-color="#3c3c3b"/><stop offset="0.91" stop-color="#3e3e3d"/><stop offset="0.93" stop-color="#454544"/><stop offset="0.95" stop-color="#50504f"/><stop offset="0.97" stop-color="#616160"/><stop offset="0.98" stop-color="#777776"/><stop offset="1" stop-color="#929291"/><stop offset="1" stop-color="#9d9d9c"/></linearGradient></defs><title>orca_web_t</title>

	<a xlink:href="https://www.instagram.com/orca.cl/" target="_top">
		<g id="Logo_Blanco" data-name="Logo Blanco"><path class="cls-1" d="M241.37,350.48a21.66,21.66,0,0,1-29.7,0,20.81,20.81,0,0,1,0-29.3,21.66,21.66,0,0,1,29.7,0A20.81,20.81,0,0,1,241.37,350.48Zm-3-14.62a13,13,0,0,0-3.41-9.08,11.26,11.26,0,0,0-16.79,0,13.74,13.74,0,0,0,0,18.12,11.31,11.31,0,0,0,16.79,0A12.9,12.9,0,0,0,238.35,335.85Z" transform="translate(-205.63 -112.13)"/><path class="cls-1" d="M291,329.4q0,9.56-7.57,12.35L293.49,356H282.56l-8.82-12.69H267.6V356h-8.88V316.2H273.8q9.27,0,13.23,3.13T291,329.4Zm-10.7,4.72q1.65-1.48,1.65-4.69T280.23,325q-1.71-1.2-6-1.2H267.6V335.6h6.49Q278.63,335.6,280.28,334.12Z" transform="translate(-205.63 -112.13)"/><path class="cls-1" d="M322.16,348.12a13.1,13.1,0,0,0,10.7-5.18l5.69,5.86q-6.77,7.62-16,7.62t-15.14-5.8a21,21,0,0,1,.11-29.42,20.42,20.42,0,0,1,14.82-5.92,21,21,0,0,1,16.39,7.46L333.26,329a12.93,12.93,0,0,0-10.47-5.23,12.2,12.2,0,0,0-8.56,3.27,11.4,11.4,0,0,0-3.56,8.82,12,12,0,0,0,3.36,8.91A11.07,11.07,0,0,0,322.16,348.12Z" transform="translate(-205.63 -112.13)"/><path class="cls-1" d="M377.42,356l-3.7-8.59H357l-3.7,8.59H343.9l17.18-39.77h8.59L386.86,356h-9.44Zm-12-27.94-5,11.55h10Z" transform="translate(-205.63 -112.13)"/><path class="cls-1" d="M428.06,318.81a19.72,19.72,0,0,1,0,34.54A21.22,21.22,0,0,1,417.56,356H401.69V316.2h16A21,21,0,0,1,428.06,318.81Zm-2,31.47a16.37,16.37,0,0,0-.09-28.4,16.55,16.55,0,0,0-8.34-2.16h-12v32.72h12.18A16.25,16.25,0,0,0,426,350.28Z" transform="translate(-205.63 -112.13)"/><path class="cls-1" d="M450.62,316.2h3.93V356h-3.93V316.2Z" transform="translate(-205.63 -112.13)"/><path class="cls-1" d="M487.61,320.32a20.08,20.08,0,0,0-5.46-.82,11.83,11.83,0,0,0-6.57,1.62,5,5,0,0,0-2.47,4.41,5.78,5.78,0,0,0,1.37,4,9.66,9.66,0,0,0,3.36,2.42,53.24,53.24,0,0,0,5.46,2,46.82,46.82,0,0,1,6.51,2.36,11.52,11.52,0,0,1,4.21,3.39,10.24,10.24,0,0,1-.06,11.49,11.49,11.49,0,0,1-5,3.78,19.39,19.39,0,0,1-7.45,1.34,20.86,20.86,0,0,1-8.11-1.65,21.81,21.81,0,0,1-6.8-4.38l1.82-3.24a19.68,19.68,0,0,0,6.2,4.1,17.84,17.84,0,0,0,6.94,1.48,12.5,12.5,0,0,0,7.23-1.85,5.76,5.76,0,0,0,2.68-5,6.08,6.08,0,0,0-1.37-4.1,9.08,9.08,0,0,0-3.36-2.45q-2-.85-5.58-2a57,57,0,0,1-6.49-2.36,10.91,10.91,0,0,1-4.15-3.3,9,9,0,0,1-1.71-5.72,8.58,8.58,0,0,1,1.71-5.29,10.82,10.82,0,0,1,4.78-3.5,19.18,19.18,0,0,1,7.11-1.22,24,24,0,0,1,12.29,3.53L493,322.68A20.67,20.67,0,0,0,487.61,320.32Z" transform="translate(-205.63 -112.13)"/><path class="cls-1" d="M509.29,316.2h26.63v3.53h-22.7v14.22h20.31v3.53H513.21v15h23.44V356H509.29V316.2Z" transform="translate(-205.63 -112.13)"/><path class="cls-1" d="M578.93,316.2h3.87V356h-4.15L554,322.28V356h-3.93V316.2h4.15l24.69,33.69V316.2Zm-4.47-5.63a3.71,3.71,0,0,1-3.33,1.71,4.59,4.59,0,0,1-2.13-.49,20.72,20.72,0,0,1-2.19-1.34,18.25,18.25,0,0,0-1.74-1.11,2.73,2.73,0,0,0-1.28-.31,1.83,1.83,0,0,0-1.62.8,3.92,3.92,0,0,0-.54,2.22h-2.79a7.9,7.9,0,0,1,1.11-4.38,3.71,3.71,0,0,1,3.33-1.71,4.76,4.76,0,0,1,2.16.48,14.13,14.13,0,0,1,2.16,1.39,17.75,17.75,0,0,0,1.74,1.11,2.75,2.75,0,0,0,1.28.31q2.16,0,2.16-3.07h2.79A7.9,7.9,0,0,1,574.47,310.56Z" transform="translate(-205.63 -112.13)"/><path class="cls-1" d="M626.53,318.56a20.49,20.49,0,0,1,7.54,7.31A19.19,19.19,0,0,1,636.86,336a19.49,19.49,0,0,1-2.79,10.18,21,21,0,0,1-36,0A19.48,19.48,0,0,1,595.32,336a19.18,19.18,0,0,1,2.79-10.13,20.46,20.46,0,0,1,7.54-7.31A21.51,21.51,0,0,1,626.53,318.56Zm-18.81,3a16.74,16.74,0,0,0-6.14,6A16,16,0,0,0,599.3,336a16.3,16.3,0,0,0,2.28,8.42,16.77,16.77,0,0,0,6.14,6.12,16.47,16.47,0,0,0,8.42,2.25,16.21,16.21,0,0,0,8.34-2.25,16.85,16.85,0,0,0,6.12-6.12,16.32,16.32,0,0,0,2.28-8.42,16,16,0,0,0-2.28-8.36,16.82,16.82,0,0,0-6.12-6,16.4,16.4,0,0,0-8.34-2.22A16.66,16.66,0,0,0,607.73,321.6Z" transform="translate(-205.63 -112.13)"/></g>
	</a>
	
	<a xlink:href="https://www.instagram.com/orca.cl/" target="_top">
		<g id="Web_Blanco" data-name="Web Blanco"><path class="cls-1" d="M346.15,395.9h-3.48l-5-14.47h3.15l3.59,10.93L348,381.44h3.15l3.59,10.93,3.59-10.93h3.15l-5,14.47H353l-3.43-9.9Z" transform="translate(-205.63 -112.13)"/><path class="cls-1" d="M370.95,395.9h-3.48l-5-14.47h3.15l3.59,10.93,3.59-10.93h3.15l3.59,10.93,3.59-10.93h3.15l-5,14.47H377.8l-3.43-9.9Z" transform="translate(-205.63 -112.13)"/><path class="cls-1" d="M395.74,395.9h-3.48l-5-14.47h3.15L394,392.37l3.59-10.93h3.15l3.59,10.93,3.59-10.93h3.15l-5,14.47H402.6l-3.43-9.9Z" transform="translate(-205.63 -112.13)"/><path class="cls-1" d="M413.16,395.52a2,2,0,0,1-.58-1.44,2,2,0,0,1,2-2,2,2,0,0,1,1.44.58,1.93,1.93,0,0,1,.6,1.43,2,2,0,0,1-2,2A1.92,1.92,0,0,1,413.16,395.52Z" transform="translate(-205.63 -112.13)"/><path class="cls-1" d="M432.7,394a7.93,7.93,0,0,1-10.88,0,7.52,7.52,0,0,1,0-10.58,7.92,7.92,0,0,1,10.88,0A7.52,7.52,0,0,1,432.7,394ZM424,392.08a4.73,4.73,0,0,0,6.55,0,5.15,5.15,0,0,0,0-6.82,4.73,4.73,0,0,0-6.55,0A5.15,5.15,0,0,0,424,392.08Z" transform="translate(-205.63 -112.13)"/><path class="cls-1" d="M445.91,384.29a4,4,0,0,0-3.4,1.47,6.26,6.26,0,0,0-1.14,3.94v6.2h-3V381.44h3v2.91a6.31,6.31,0,0,1,2-2.23,4.83,4.83,0,0,1,2.68-.9l0,3.07h-0.16Z" transform="translate(-205.63 -112.13)"/><path class="cls-1" d="M455.54,396.12a7.3,7.3,0,0,1-5.19-2.05,7.64,7.64,0,0,1,.09-10.77,7.9,7.9,0,0,1,5.53-2.08,7.51,7.51,0,0,1,5.52,2.26l-1.79,2.2a5.78,5.78,0,0,0-3.78-1.63,4.76,4.76,0,0,0-3.3,1.26,4.19,4.19,0,0,0-1.4,3.26,4.74,4.74,0,0,0,4.8,4.77,5.3,5.3,0,0,0,3.82-1.85l1.79,2A8.31,8.31,0,0,1,455.54,396.12Z" transform="translate(-205.63 -112.13)"/><path class="cls-1" d="M476.39,395.9h-2.77V394a6,6,0,0,1-4.81,2.15,5.52,5.52,0,0,1-3.74-1.28,4.27,4.27,0,0,1-1.48-3.41,3.59,3.59,0,0,1,1.58-3.2,7.55,7.55,0,0,1,4.27-1.06h3.94v-0.54q0-2.88-3.21-2.88a7.51,7.51,0,0,0-4.19,1.47l-1.36-1.9a9.37,9.37,0,0,1,6-2.09,6.48,6.48,0,0,1,4.17,1.29,4.89,4.89,0,0,1,1.62,4.07v9.33Zm-3-5.38v-1.22h-3.43q-3.29,0-3.29,2.07a1.83,1.83,0,0,0,.82,1.62,4,4,0,0,0,2.27.56,4.11,4.11,0,0,0,2.54-.82A2.61,2.61,0,0,0,473.34,390.52Z" transform="translate(-205.63 -112.13)"/><path class="cls-1" d="M480.81,395.52a2,2,0,0,1-.58-1.44,2,2,0,0,1,2-2,2,2,0,0,1,1.44.58,1.93,1.93,0,0,1,.6,1.43,2,2,0,0,1-2,2A1.92,1.92,0,0,1,480.81,395.52Z" transform="translate(-205.63 -112.13)"/><path class="cls-1" d="M494.66,396.12a7.3,7.3,0,0,1-5.19-2.05,7.64,7.64,0,0,1,.09-10.77,7.9,7.9,0,0,1,5.53-2.08,7.51,7.51,0,0,1,5.52,2.26l-1.79,2.2A5.78,5.78,0,0,0,495,384a4.76,4.76,0,0,0-3.3,1.26,4.19,4.19,0,0,0-1.4,3.26,4.74,4.74,0,0,0,4.8,4.77A5.3,5.3,0,0,0,499,391.5l1.79,2A8.31,8.31,0,0,1,494.66,396.12Z" transform="translate(-205.63 -112.13)"/><path class="cls-1" d="M507,395.9h-3V375.72h3V395.9Z" transform="translate(-205.63 -112.13)"/></g>
	</a>

	<a xlink:href="https://www.instagram.com/orca.cl/" target="_top">
		<g id="C_Negra" data-name="C Negra"><path class="cls-2" d="M492.25,154c0.79-4.45-2-7.32-6.39-7.82a23.3,23.3,0,0,0-5.17.14,47.59,47.59,0,0,0-13.36,3.08A35.75,35.75,0,0,0,464,151c29.12-8.21,25.54,9.54,25.54,9.54a9.33,9.33,0,0,1,1.09-2A17.24,17.24,0,0,0,492.25,154Z" transform="translate(-205.63 -112.13)"/><path class="cls-2" d="M508.51,216.31a7.89,7.89,0,0,0-1.47-4.36,18.5,18.5,0,0,0-6.89-4.62l-0.92-.31-0.49-.14-1-.27c-2.84-.68-6.11-1-10.48-1.66-0.74-.07-1.38-0.12-1.94-0.15h-1.27l-0.5,0h-0.09l-0.49.07h0a1.46,1.46,0,0,0-.93.49,5.31,5.31,0,0,0,.51,2.76,5.31,5.31,0,0,1-.23,4.78,5.15,5.15,0,0,1-1.14,1.45c-1.22,1.26-2.91,1.87-5.16,2.29l-0.17,0-0.55.1-0.44.08-1.07.15H473.7l-0.75.07h-0.08l-0.65,0-0.49,0-1,0H470.5a63.57,63.57,0,0,1-9.56-.63c1.09,0.16,2.84,1.39,5.74,2.81a79.52,79.52,0,0,0,18,4.53,49.17,49.17,0,0,0,16-1.29,22.81,22.81,0,0,0,6.46-3.47h0l0.46-.39,0-.05-0.42.35-0.11.09h0l0.11-.09,0.42-.36a4.44,4.44,0,0,0,.57-1A4.65,4.65,0,0,0,508.51,216.31Z" transform="translate(-205.63 -112.13)"/><path class="cls-2" d="M426,245.9q-2.09-.31-4.17-0.74a178.29,178.29,0,0,1-18.25-7.58A45.06,45.06,0,0,1,391.6,225a48.51,48.51,0,0,1-7-19,50.79,50.79,0,0,1,1.53-21.51c2.79-9.53,10.46-22.39,16.81-29.66,2.85-3.26,6.18-6.28,5.62-6.29-0.77,0-1.49-.09-2.15-0.08-4.52.06-7,.91-12.45,3-5.06,2-28.71,12.66-29.32,49.4a47.71,47.71,0,0,0,3.45,19.54,39.11,39.11,0,0,0,9.81,13.6,61.13,61.13,0,0,0,15.41,9.81q5.16,2.4,10.51,4.34a37.4,37.4,0,0,0,11.49,2.65,18.58,18.58,0,0,0,11.81-3.7l0.14-.12a0.76,0.76,0,0,0,.21-0.27C427.73,246,426.36,246,426,245.9Z" transform="translate(-205.63 -112.13)"/><path class="cls-3" d="M434.43,218c-2.24,3.33-1.14,8.31-.72,12.27a20.63,20.63,0,0,1-5.77,15.52c-4.27,4.22-11.14,6.51-21.49,2.93-21.61-7.48-42.38-18.12-41.88-48.2,0.61-36.74,24.69-47.24,29.75-49.2,6.24-2.41,11.73-3.52,15.75-2.44,3.37,0.91,5.69,3.37,6.53,7.92,0.55,3,.59,6.27,2,9a5.7,5.7,0,0,0,2.3,2.49,9.49,9.49,0,0,0,6.3.64,61.44,61.44,0,0,0,17.06-5.77c5.4-2.72,10.32-6.25,15.37-9.55,1.44-.94,2.91-1.85,4.42-2.68a35.81,35.81,0,0,1,3.28-1.61,47.59,47.59,0,0,1,13.36-3.08,23.29,23.29,0,0,1,5.17-.14c4.39,0.5,7.18,3.37,6.39,7.82a17.24,17.24,0,0,1-1.57,4.5,9.33,9.33,0,0,0-1.09,2,2.84,2.84,0,0,0,2.53-.57c2.25-1.76,3.32-5.13,4-7.79,2.83-11.8-13.13-17.95-19.78-21.44s-32.58-15.46-43.55-17.62c-9.41-1.85-26.57-2.14-47.27,8.75a66.58,66.58,0,0,0-7.1,4.27l-1.64,1.11a99.58,99.58,0,0,0-18.58,16.19,87.28,87.28,0,0,0-7.35,9.49q-1.68,2.52-3.17,5.15c-0.49.86-.95,1.73-1.41,2.61-0.68,1.3-1.17,2.76-1.77,4.11q-1,2.34-1.93,4.75a69.71,69.71,0,0,0-2.8,9.8c-4.74,22.87-4.1,48.56,10.25,68,5.41,7.33,12.6,13.44,20.33,18.72,2.77,1.9,5.61,3.65,8.46,5.23A76.63,76.63,0,0,0,407.9,280a92.6,92.6,0,0,0,18.63,0l0,0,0.32,0h0.06a88.2,88.2,0,0,0,15.35-3c11.65-3.47,21.17-9.58,30.12-17.65,10.78-9.72,21.5-19.73,30.61-31.06a28.53,28.53,0,0,0,4.49-6.84,14.11,14.11,0,0,0,1-3.38l-0.77.65,0,0.05-0.46.39h0a22.81,22.81,0,0,1-6.46,3.47l-0.3.07a22.24,22.24,0,0,0,6.72-3.59l0.06,0-0.06,0c0.21-.16.41-0.35,0.61-0.52l-0.08.12,0.77-.65s0,0,0-.06l0,0,0,0a9.77,9.77,0,0,0,.08-1.72,4.65,4.65,0,0,1-.28,1.43,4.29,4.29,0,0,1-.48.87l-0.68.58h0a22.89,22.89,0,0,1-6.71,3.55,49.67,49.67,0,0,1-15.62,1.21,79.52,79.52,0,0,1-18-4.53c-2.9-1.42-4.65-2.65-5.74-2.81-2-.27-4.26-0.63-6.71-1.11-12.21-2.38-17.55-.71-19.73,2.52" transform="translate(-205.63 -112.13)"/><path class="cls-2" d="M364.77,149c-2.08-1.52-7.33,2.13-11.72,8.14s-6.26,12.12-4.18,13.64,7.33-2.13,11.72-8.14c3.07-4.21,4.91-8.46,5-11.16A2.79,2.79,0,0,0,364.77,149Z" transform="translate(-205.63 -112.13)"/></g>
	</a>
</svg>